<svg width="18" height="15" viewBox="0 0 18 15" class="cg">
<path d="M17.7165 2.00016C17.0749 2.29183 16.3832 2.4835 15.6665 2.57516C16.3999 2.1335 16.9665 1.4335 17.2332 0.591829C16.5415 1.0085 15.7749 1.30016 14.9665 1.46683C14.3082 0.750163 13.3832 0.333496 12.3332 0.333496C10.3749 0.333496 8.77487 1.9335 8.77487 3.9085C8.77487 4.19183 8.8082 4.46683 8.86654 4.72516C5.89987 4.57516 3.2582 3.15016 1.49987 0.991829C1.19154 1.51683 1.01654 2.1335 1.01654 2.7835C1.01654 4.02516 1.64154 5.12516 2.6082 5.75016C2.01654 5.75016 1.46654 5.5835 0.983203 5.3335C0.983203 5.3335 0.983203 5.3335 0.983203 5.3585C0.983203 7.09183 2.21654 8.54183 3.84987 8.86683C3.54987 8.95016 3.2332 8.99183 2.9082 8.99183C2.6832 8.99183 2.4582 8.96683 2.24154 8.92516C2.69154 10.3335 3.99987 11.3835 5.57487 11.4085C4.3582 12.3752 2.81654 12.9418 1.1332 12.9418C0.84987 12.9418 0.566536 12.9252 0.283203 12.8918C1.86654 13.9085 3.74987 14.5002 5.76654 14.5002C12.3332 14.5002 15.9415 9.05016 15.9415 4.32516C15.9415 4.16683 15.9415 4.01683 15.9332 3.8585C16.6332 3.3585 17.2332 2.72516 17.7165 2.00016Z"></path>
</svg>